<?xml version="1.0" standalone="no"?>
<!DOCTYPE svg PUBLIC "-//W3C//DTD SVG 20010904//EN"
 "http://www.w3.org/TR/2001/REC-SVG-20010904/DTD/svg10.dtd">
<svg version="1.0" xmlns="http://www.w3.org/2000/svg"
 width="181.000000pt" height="181.000000pt" viewBox="0 0 181.000000 181.000000"
 preserveAspectRatio="xMidYMid meet">
<metadata>
Created by potrace 1.11, written by Peter Selinger 2001-2013
</metadata>
<g transform="translate(0.000000,181.000000) scale(0.100000,-0.100000)"
fill="#000000" stroke="none">
<path d="M0 900 l0 -900 900 0 900 0 0 900 0 900 -900 0 -900 0 0 -900z m1532
778 c17 -14 23 -66 20 -169 -2 -45 -6 -58 -19 -61 -16 -4 -18 4 -15 96 2 71 0
97 -7 86 -6 -8 -11 -24 -11 -35 -1 -59 -85 -205 -172 -300 -132 -145 -416
-288 -655 -330 -138 -24 -370 -19 -445 10 -14 5 -18 -3 -23 -49 -12 -96 21
-279 53 -290 9 -3 28 -13 42 -21 l25 -15 -38 0 c-56 0 -74 14 -93 73 -21 69
-31 285 -14 316 13 25 11 25 135 2 122 -23 334 -4 494 45 177 54 398 180 502
287 59 61 144 222 155 294 7 51 19 73 38 73 7 0 19 -6 28 -12z m-411 -79 c129
-36 249 -105 249 -144 0 -33 -15 -39 -28 -11 -13 28 -150 98 -242 123 -99 27
-273 24 -370 -6 -203 -63 -356 -188 -445 -365 -44 -89 -55 -136 -30 -136 9 0
31 -11 47 -26 29 -24 29 -25 7 -20 -13 3 -41 8 -61 11 -57 9 -63 31 -33 111
99 263 339 450 625 487 63 9 210 -4 281 -24z m79 -269 c45 -20 60 -31 49 -35
-10 -4 -43 9 -80 29 -77 43 -59 47 31 6z m386 -118 c18 -11 41 -63 58 -129 20
-76 20 -76 -4 -61 -11 7 -27 35 -35 63 -25 85 -32 85 -40 -1 -31 -340 -271
-674 -631 -879 l-79 -45 63 0 c55 0 62 -2 62 -20 0 -18 -7 -20 -68 -20 -73 0
-92 10 -92 46 0 17 16 31 73 62 340 188 598 521 632 817 l7 60 -40 -80 c-26
-53 -48 -84 -64 -91 l-25 -11 23 42 c32 56 85 185 76 185 -4 0 -25 -28 -47
-61 -52 -79 -200 -222 -298 -288 -217 -146 -482 -234 -750 -248 -80 -4 -117
-10 -117 -18 0 -13 70 -116 104 -154 11 -13 31 -27 44 -32 31 -12 27 -29 -7
-29 -24 0 -39 12 -80 61 -67 80 -103 143 -99 171 3 22 8 23 126 30 154 8 312
38 444 84 100 35 270 122 334 170 17 13 36 24 42 24 6 0 12 3 14 8 2 4 25 25
52 47 41 33 97 94 171 186 7 9 16 26 19 37 9 26 42 55 57 50 7 -2 21 4 31 14
20 20 27 21 44 10z"/>
</g>
</svg>
