<?xml version="1.0" encoding="utf-8"?>
<!-- Svg Vector Icons : http://www.onlinewebfonts.com/icon -->
<!DOCTYPE svg PUBLIC "-//W3C//DTD SVG 1.1//EN" "http://www.w3.org/Graphics/SVG/1.1/DTD/svg11.dtd">
<svg version="1.1" xmlns="http://www.w3.org/2000/svg" xmlns:xlink="http://www.w3.org/1999/xlink" x="0px" y="0px" viewBox="0 0 1000 1000" enable-background="new 0 0 1000 1000" xml:space="preserve">
<metadata> Svg Vector Icons : http://www.onlinewebfonts.com/icon </metadata>
<g><g transform="translate(0.000000,512.000000) scale(0.100000,-0.100000)"><path d="M3251.5,5015.4c-30.6-3.8-139.8-17.2-239.4-28.7c-99.6-11.5-195.4-28.7-212.6-38.3c-17.2-9.6-61.3-91.9-99.6-183.9c-270.1-681.9-323.7-1612.8-153.2-2683.5l30.6-197.3l101.5-103.4c164.7-166.6,319.9-517.2,448.2-1015.2c162.8-632.1,293.1-1511.3,344.8-2323.4c15.3-245.2,30.6-360.1,59.4-434.8c74.7-199.2,214.5-340.9,406.1-408c107.3-36.4,126.4-59.4,258.6-310.3c227.9-429.1,363.9-852.4,381.2-1191.4c19.2-356.3-51.7-574.6-247.1-766.2l-113-111.1h182h180l59.4,74.7c147.5,185.8,212.6,402.2,212.6,714.5c0,417.6-155.2,961.5-434.8,1517c-70.9,141.7-72.8,136,38.3,195.4l51.7,28.7v369.7c0,203,5.7,603.4,13.4,888.8l11.5,519.1l164.7,5.8l164.7,5.7l5.7,800.6l3.8,798.7h-174.3h-174.3l13.4,120.7c26.8,227.9,114.9,478.9,222.2,628.3c101.5,143.7,484.6,247.1,1262.3,340.9c580.4,70.9,1492.1,139.8,2218,166.7c249,9.6,340.9,19.2,316,32.6c-113,61.3-212.6,227.9-277.7,471.2c-55.5,205-59.4,708.7-7.6,929c57.5,252.8,159,446.3,256.7,498c40.2,21.1-70.9,24.9-687.6,24.9c-1331.2,0-1888.6,76.6-2708.4,379.2c-597.6,218.3-890.7,275.8-1446.1,287.3C3477.5,5021.2,3284.1,5021.2,3251.5,5015.4z"/><path d="M2113.8,4843c-438.6-130.2-754.7-304.6-1007.5-553.6C841.9,4029,730.8,3787.6,704,3418c-17.2-210.7,17.2-503.8,78.5-685.7c147.5-440.5,469.3-674.2,1068.8-779.6c93.9-15.3,193.5-28.7,222.2-28.7h49.8l-42.1,264.3c-122.6,747-107.3,1490.2,40.2,2078.2c38.3,147.5,143.7,446.3,216.4,612.9C2349.4,4902.4,2280.4,4892.8,2113.8,4843z"/><path d="M8815.8,4210.9c-285.4-241.3-331.4-1178-76.6-1563c178.1-268.2,402.2-136,521,306.5c30.6,114.9,40.2,206.9,40.2,415.7c0,310.3-32.6,492.3-120.7,674.2C9074.4,4255,8942.2,4316.3,8815.8,4210.9z"/></g></g>
</svg>