<?xml version="1.0" encoding="utf-8"?>
<!-- Svg Vector Icons : http://www.onlinewebfonts.com/icon -->
<!DOCTYPE svg PUBLIC "-//W3C//DTD SVG 1.1//EN" "http://www.w3.org/Graphics/SVG/1.1/DTD/svg11.dtd">
<svg version="1.1" xmlns="http://www.w3.org/2000/svg" xmlns:xlink="http://www.w3.org/1999/xlink" x="0px" y="0px" viewBox="0 0 1000 1000" enable-background="new 0 0 1000 1000" xml:space="preserve">
<metadata> Svg Vector Icons : http://www.onlinewebfonts.com/icon </metadata>
<g><path d="M570,570v43.1c0,14.8-12,26.9-26.9,26.9h-86.2c-14.8,0-26.9-12-26.9-26.9V570H10v296.2c0,29.6,24.2,53.8,53.8,53.8h872.5c29.6,0,53.8-24.2,53.8-53.8V570H570z"/><path d="M936.2,220H710v-86.2c0-29.6-24.2-53.8-53.8-53.8H343.8c-29.6,0-53.8,24.2-53.8,53.8V220l-226.2,0C34.2,220,10,244.2,10,273.8V500h420v-43.1c0-14.8,12-26.9,26.9-26.9h86.2c14.8,0,26.9,12,26.9,26.9V500h420V273.8C990,244.2,965.8,220,936.2,220 M640,220H360v-70h280V220z"/>
</g>
</svg>